<?xml version="1.0" encoding="utf-8"?>
<!-- Generator: Adobe Illustrator 26.0.2, SVG Export Plug-In . SVG Version: 6.00 Build 0)  -->
<svg version="1.1" id="Layer_1" xmlns="http://www.w3.org/2000/svg" xmlns:xlink="http://www.w3.org/1999/xlink" x="0px" y="0px"
	 viewBox="0 0 144.8 87.1" style="enable-background:new 0 0 144.8 87.1;" xml:space="preserve">
<style type="text/css">
	.st0{fill:#E6E6E6;}
	.st1{fill:#4D4D4D;}
</style>
<rect class="st0" width="144.8" height="87.1"/>
<g>
	<rect x="128.8" y="65.1" class="st1" width="14" height="3.6"/>
	<rect x="2" y="65.1" class="st1" width="14" height="3.6"/>
	<g>
		<path class="st1" d="M29.4,67.6c0,1.3-0.4,2.4-1.2,3.4c-0.9,1-1.9,1.5-3.2,1.5c-0.8,0-1.5-0.2-2.1-0.7c-0.3-0.2-0.5-0.5-0.8-0.8
			c0,0-0.1,0.1-0.1,0.2c0,0,0,0.4,0,1.1l0,2.7c0,0.2-0.1,0.3-0.2,0.3c-1,0-1.6,0-1.8,0c-0.1,0-0.2-0.1-0.2-0.2c0-0.8,0-2.1,0-3.7
			s0-2.9,0-3.7c0-1.5-0.1-2.9-0.3-4.2c0-0.1,0-0.1,0-0.2c0-0.1,0-0.1,0.1-0.1c0.2,0,0.6,0,1.1-0.1c0.6-0.1,1-0.2,1.1-0.2
			c0.1,0,0.2,0.2,0.2,0.6c0,0.3,0,0.5,0,0.8c0,0.1,0,0.1,0.1,0.2c0,0,0.1-0.1,0.2-0.1c0.9-0.9,1.8-1.4,2.7-1.4
			c1.3,0,2.3,0.5,3.2,1.5C29,65.2,29.4,66.3,29.4,67.6z M27.2,67.6c0-0.8-0.2-1.4-0.7-2c-0.5-0.6-1.1-0.9-1.9-0.9
			c-0.7,0-1.4,0.3-1.8,1c-0.4,0.6-0.7,1.2-0.7,2c0,0.8,0.2,1.5,0.7,2c0.5,0.6,1.1,0.9,1.9,0.9c0.7,0,1.4-0.3,1.9-1
			C26.9,69,27.2,68.3,27.2,67.6z"/>
		<path class="st1" d="M39.3,71.9c0,0.2-0.1,0.4-0.2,0.4c-0.2,0-0.5,0-0.9,0s-0.7,0-0.9,0c-0.2,0-0.2-0.1-0.2-0.3c0-0.3,0-0.8,0-1.4
			s0-1.1,0-1.4c0-0.3,0-0.7,0-1.3s0-1.1,0-1.3c0-1.2-0.5-1.7-1.6-1.7c-0.3,0-0.8,0.2-1.4,0.5c-0.6,0.4-0.9,0.7-0.9,1V72
			c0,0.2-0.1,0.3-0.2,0.3c-0.2,0-0.5,0-0.9,0c-0.4,0-0.7,0-0.9,0c-0.1,0-0.2-0.1-0.2-0.3v-4.7c0-0.8,0-2.4-0.1-4.8
			c0-0.8-0.1-1.9-0.2-3.4c0-0.1,0-0.1,0-0.2c0-0.1,0-0.2,0.1-0.2c0.1,0,0.5-0.1,1.1-0.1c0.1,0,0.3,0,0.6-0.1s0.5-0.1,0.6-0.1
			c0.1,0,0.1,0.1,0.1,0.2c0,0.6,0,1.5-0.1,2.7c0,1.2-0.1,2.1-0.1,2.7c0,0.2,0,0.2,0.1,0.2c0.3-0.3,0.8-0.6,1.3-1
			c0.6-0.4,1.3-0.6,2-0.6c1.2,0,2,0.4,2.5,1.1c0.3,0.5,0.5,1.4,0.5,2.5c0,0.2,0,0.5,0,0.9c0,0.4,0,0.7,0,0.9c0,0.4,0,1,0,1.8
			C39.3,70.9,39.3,71.5,39.3,71.9z"/>
		<path class="st1" d="M49.9,67.5c0,1.3-0.4,2.5-1.3,3.4c-0.9,1-2,1.5-3.3,1.5c-1.3,0-2.5-0.5-3.3-1.5c-0.9-0.9-1.3-2.1-1.3-3.4
			c0-1.3,0.4-2.5,1.3-3.4c0.9-1,2-1.4,3.3-1.4c1.3,0,2.4,0.5,3.3,1.4C49.4,65.1,49.9,66.2,49.9,67.5z M47.9,67.6
			c0-0.8-0.2-1.4-0.7-2c-0.5-0.6-1.1-0.9-1.9-0.9s-1.4,0.3-1.9,0.9c-0.5,0.6-0.7,1.2-0.7,2c0,0.8,0.2,1.4,0.7,2
			c0.5,0.6,1.2,0.9,1.9,0.9s1.4-0.3,1.9-0.9C47.6,69,47.9,68.3,47.9,67.6z"/>
		<path class="st1" d="M56.6,70.4c0,0.1,0,0.3,0,0.6c0,0.3,0,0.5-0.1,0.6c0,0.1,0,0.2,0,0.2c0,0.1-0.1,0.1-0.2,0.1
			c-0.5,0.2-1.3,0.4-2.5,0.4c-1.5,0-2.2-0.7-2.2-2c0-0.5,0-1.4,0-2.5c0-1.1,0-1.9,0-2.5c0-0.3-0.1-0.4-0.4-0.4c-0.2,0-0.5,0-0.7,0
			c-0.1,0-0.2-0.3-0.2-0.8c0-0.2,0-0.4,0-0.6c0-0.2,0.1-0.2,0.3-0.3c0.2,0,0.3,0,0.5,0c0.3,0,0.4-0.2,0.4-0.4c0-0.3,0-0.7,0-1.2
			c0-0.5,0-0.9,0-1.2c0-0.5,0.1-0.7,0.3-0.7c0.1,0,0.7,0.1,1.8,0.3c0.2,0,0.2,0.1,0.2,0.2c0,0.3,0,0.7-0.1,1.3c0,0.6-0.1,1-0.1,1.3
			c0,0.2,0.1,0.3,0.3,0.3h2.3c0.1,0,0.2,0,0.2,0.1c0,0.1,0,0.2,0,0.4s0,0.3,0,0.4c0,0.1,0,0.2,0,0.4c0,0.2,0,0.3,0,0.4
			c0,0.1-0.1,0.2-0.3,0.2c-0.3,0-0.7,0-1.2-0.1c-0.5,0-0.9-0.1-1.2-0.1c0,0-0.1,0.2-0.1,0.6c0,0.5,0,1.1,0,1.9v1.4
			c0,0.6,0,0.9,0.2,1.2c0.2,0.3,0.5,0.5,1,0.5c0.2,0,0.5,0,0.9-0.1c0.4-0.1,0.7-0.1,0.9-0.1C56.6,70.3,56.6,70.3,56.6,70.4z"/>
		<path class="st1" d="M66.7,67.5c0,1.3-0.4,2.5-1.3,3.4c-0.9,1-2,1.5-3.3,1.5c-1.3,0-2.5-0.5-3.3-1.5c-0.9-0.9-1.3-2.1-1.3-3.4
			c0-1.3,0.4-2.5,1.3-3.4c0.9-1,2-1.4,3.3-1.4c1.3,0,2.4,0.5,3.3,1.4C66.3,65.1,66.7,66.2,66.7,67.5z M64.7,67.6
			c0-0.8-0.2-1.4-0.7-2c-0.5-0.6-1.1-0.9-1.9-0.9s-1.4,0.3-1.9,0.9c-0.5,0.6-0.7,1.2-0.7,2c0,0.8,0.2,1.4,0.7,2
			c0.5,0.6,1.2,0.9,1.9,0.9s1.4-0.3,1.9-0.9C64.4,69,64.7,68.3,64.7,67.6z"/>
		<path class="st1" d="M76.6,63.2c0,0.8,0,1.9,0,3.5c0,1.5,0,2.7,0,3.5c0,1.5-0.3,2.7-1,3.4c-0.7,0.8-1.8,1.2-3.3,1.2
			c-1.5,0-2.6-0.3-3.5-0.8c-0.1-0.1-0.2-0.2-0.2-0.2c0,0.1,0.1-0.4,0.3-1.4c0-0.1,0.1-0.2,0.1-0.2c0,0,0.1,0,0.1,0.1
			c1,0.6,1.9,0.8,2.9,0.8c0.6,0,1.2-0.1,1.6-0.4c0.5-0.3,0.7-0.8,0.7-1.4c0-0.1,0-0.4,0-0.9c-0.7,0.9-1.6,1.3-2.7,1.3
			c-1.2,0-2.2-0.4-2.9-1.3c-0.7-0.8-1.1-1.8-1.1-3c0-1.2,0.3-2.3,1.1-3.1c0.8-0.9,1.7-1.4,2.9-1.4c1.1,0,1.9,0.4,2.5,1.2
			c0.1,0.1,0.2,0.2,0.2,0.2c0.1,0,0.1-0.1,0.1-0.2c0-0.1,0-0.2,0-0.4c0-0.2,0-0.3,0-0.4c0-0.4,0-0.6,0.1-0.6s0.4,0.1,1,0.2
			s1,0.2,1,0.2C76.5,63,76.6,63.1,76.6,63.2z M74.2,67.2c0-0.7-0.2-1.3-0.6-1.8c-0.4-0.6-1-0.8-1.7-0.8c-0.7,0-1.3,0.3-1.7,0.8
			c-0.4,0.5-0.6,1.1-0.6,1.8c0,0.7,0.2,1.3,0.6,1.8c0.4,0.6,1,0.8,1.7,0.8c0.7,0,1.2-0.3,1.7-0.8C74,68.5,74.2,67.9,74.2,67.2z"/>
		<path class="st1" d="M83.8,63.2c0,0.7-0.1,1.3-0.2,1.9c0,0.2-0.1,0.2-0.2,0.2c-0.1,0-0.3,0-0.6,0c-0.3,0-0.5,0-0.6,0
			c-0.8,0-1.3,0.2-1.6,0.7c-0.1,0.3-0.2,0.8-0.2,1.7v1.1c0,0.4,0,0.9,0,1.6c0,0.7,0,1.3,0,1.6c0,0.2-0.1,0.3-0.2,0.3
			c-0.2,0-0.5,0-0.9,0c-0.4,0-0.7,0-0.9,0c-0.2,0-0.2-0.1-0.2-0.2c0-0.5,0-1.3,0-2.3s0-1.8,0-2.4c0-1.6-0.2-2.9-0.4-3.8
			c0,0,0-0.1,0-0.1c0-0.1,0-0.1,0.1-0.2c0.2,0,0.6-0.1,1-0.1c0.7-0.1,1-0.2,1-0.2c0.1,0,0.2,0.2,0.2,0.6s0.1,0.6,0.2,0.6
			c0,0,0,0,0.1,0c0.3-0.2,0.5-0.3,0.8-0.5c0.3-0.2,0.6-0.3,0.9-0.4c0.2-0.1,0.6-0.1,1-0.1C83.6,63,83.8,63,83.8,63.2z"/>
		<path class="st1" d="M94.2,63.5c0,0,0,0.1,0,0.2c-0.2,1.5-0.4,2.7-0.4,3.8c0,0.1,0.1,1.5,0.2,4.3l0,0.1c0,0.2-0.1,0.3-0.2,0.3
			c-0.2,0-0.4,0-0.8,0.1s-0.6,0.1-0.8,0.1c-0.1,0-0.2-0.2-0.3-0.7c-0.1-0.4-0.1-0.7-0.2-0.7c0,0-0.2,0.1-0.5,0.4
			c-0.4,0.3-0.7,0.5-1.1,0.7c-0.5,0.3-1,0.4-1.5,0.4c-1.2,0-2.3-0.5-3.2-1.5c-0.8-0.9-1.2-2.1-1.2-3.3c0-1.4,0.4-2.6,1.2-3.5
			c0.8-1,2-1.5,3.4-1.5c1,0,1.8,0.3,2.6,1c0.1,0.1,0.3,0.3,0.5,0.5c0,0,0,0,0.1,0c0,0,0.1-0.2,0.2-0.6c0.1-0.4,0.2-0.6,0.3-0.6
			c0.2,0,0.5,0,1,0.2C94,63.3,94.2,63.4,94.2,63.5z M91.8,67.5c0-0.8-0.2-1.5-0.7-2c-0.5-0.6-1.1-0.9-1.9-0.9
			c-0.8,0-1.4,0.3-1.9,0.9c-0.5,0.6-0.7,1.3-0.7,2s0.2,1.4,0.7,2c0.5,0.6,1.2,0.9,1.9,0.9c0.8,0,1.4-0.3,1.9-0.9
			C91.6,69,91.8,68.3,91.8,67.5z"/>
		<path class="st1" d="M105.4,67.6c0,1.3-0.4,2.4-1.2,3.4c-0.9,1-1.9,1.5-3.2,1.5c-0.8,0-1.5-0.2-2.1-0.7c-0.3-0.2-0.5-0.5-0.8-0.8
			c0,0-0.1,0.1-0.1,0.2c0,0,0,0.4,0,1.1l0,2.7c0,0.2-0.1,0.3-0.2,0.3c-1,0-1.6,0-1.8,0c-0.2,0-0.2-0.1-0.2-0.2c0-0.8,0-2.1,0-3.7
			c0-1.6,0-2.9,0-3.7c0-1.5-0.1-2.9-0.3-4.2c0-0.1,0-0.1,0-0.2c0-0.1,0-0.1,0.1-0.1c0.2,0,0.6,0,1.1-0.1c0.6-0.1,1-0.2,1.1-0.2
			c0.1,0,0.2,0.2,0.2,0.6c0,0.3,0,0.5,0.1,0.8c0,0.1,0,0.1,0.1,0.2c0.1,0,0.1-0.1,0.2-0.1c0.9-0.9,1.8-1.4,2.7-1.4
			c1.3,0,2.3,0.5,3.2,1.5C105,65.2,105.4,66.3,105.4,67.6z M103.2,67.6c0-0.8-0.2-1.4-0.7-2c-0.5-0.6-1.1-0.9-1.9-0.9
			c-0.7,0-1.3,0.3-1.8,1c-0.4,0.6-0.7,1.2-0.7,2c0,0.8,0.2,1.5,0.7,2c0.5,0.6,1.1,0.9,1.9,0.9c0.7,0,1.3-0.3,1.8-1
			C103,69,103.2,68.3,103.2,67.6z"/>
		<path class="st1" d="M115.3,71.9c0,0.2-0.1,0.4-0.2,0.4c-0.2,0-0.5,0-0.9,0s-0.7,0-0.9,0c-0.2,0-0.2-0.1-0.2-0.3
			c0-0.3,0-0.8,0-1.4c0-0.6,0-1.1,0-1.4c0-0.3,0-0.7,0-1.3s0-1.1,0-1.3c0-1.2-0.6-1.7-1.6-1.7c-0.3,0-0.8,0.2-1.4,0.5
			c-0.6,0.4-0.9,0.7-0.9,1V72c0,0.2-0.1,0.3-0.2,0.3c-0.2,0-0.5,0-0.9,0c-0.4,0-0.7,0-0.9,0c-0.2,0-0.2-0.1-0.2-0.3v-4.7
			c0-0.8,0-2.4-0.1-4.8c0-0.8-0.1-1.9-0.2-3.4c0-0.1,0-0.1,0-0.2c0-0.1,0-0.2,0.1-0.2c0.1,0,0.5-0.1,1.1-0.1c0.1,0,0.3,0,0.6-0.1
			c0.3,0,0.5-0.1,0.6-0.1c0.1,0,0.1,0.1,0.1,0.2c0,0.6,0,1.5-0.1,2.7c-0.1,1.2-0.1,2.1-0.1,2.7c0,0.2,0,0.2,0.1,0.2
			c0.3-0.3,0.8-0.6,1.3-1c0.6-0.4,1.3-0.6,2-0.6c1.2,0,2,0.4,2.5,1.1c0.3,0.5,0.5,1.4,0.5,2.5c0,0.2,0,0.5,0,0.9c0,0.4,0,0.7,0,0.9
			c0,0.4,0,1,0,1.8C115.3,70.9,115.3,71.5,115.3,71.9z"/>
		<path class="st1" d="M125.3,65.5c0,1.1,0,1.7-0.1,2c-0.1,0.3-0.9,1.6-2.4,3.8c-1.5,2.2-2.4,3.5-2.7,3.7c-0.3,0.2-1.1,0.3-2.5,0.3
			c-0.2,0-0.3,0-0.3-0.1c-0.1,0-0.2-0.3-0.3-0.7s-0.2-0.7-0.2-0.8c0-0.1,0.2-0.2,0.5-0.2c0.7,0,1.2-0.1,1.6-0.3
			c0.1-0.1,0.3-0.3,0.5-0.7s0.3-0.6,0.3-0.8c0-0.2-0.5-0.8-1.4-2c-1-1.2-1.5-2.1-1.7-2.4c-0.1-0.3-0.1-0.9-0.1-1.9
			c0-0.2,0-0.6,0-1.1s0-0.9,0-1.1c0-0.1,0.1-0.2,0.2-0.2c0.2,0,0.5,0,0.9,0c0.4,0,0.7,0,0.9,0c0.1,0,0.2,0.1,0.2,0.2
			c0,0.2,0,0.5,0,0.8s0,0.6,0,0.8c0,0.8,0,1.4,0.1,1.8c0,0.2,0.4,0.8,1.1,1.8s1.1,1.4,1.2,1.4c0.1,0,0.4-0.5,1-1.4
			c0.6-0.9,0.9-1.5,0.9-1.8c0.1-0.3,0.1-0.9,0.1-1.8c0-0.2,0-0.5-0.1-0.8s-0.1-0.6-0.1-0.8c0-0.2,0.1-0.2,0.2-0.2c0.2,0,0.5,0,0.9,0
			c0.4,0,0.7,0,0.9,0C125.2,63.2,125.3,64,125.3,65.5z"/>
	</g>
</g>
<g>
	<path class="st1" d="M35.9,20.8h6.3v29.9h-6.3v-5.9c-3.1,4.5-6.9,6.8-11.4,6.8c-3.9,0-7.3-1.5-10.1-4.6c-2.8-3.1-4.2-6.8-4.2-11.3
		c0-4.2,1.4-7.8,4.2-11s6.1-4.7,9.9-4.7c2.3,0,4.6,0.6,6.7,1.9s3.7,2.9,4.9,5V20.8z M34.6,36c-0.2-6.8-7.5-12.3-13.7-8.1
		c-3.6,2.4-4.9,7.5-3.4,11.4c1.2,3.1,3.9,5.5,7.2,6c3.4,0.5,6.8-1.3,8.5-4.2C34.2,39.5,34.7,37.7,34.6,36z"/>
	<path class="st1" d="M128.5,20h6.3v29.9h-6.3v-5.9c-3.1,4.5-6.9,6.8-11.4,6.8c-3.9,0-7.3-1.5-10.1-4.6c-2.8-3.1-4.2-6.8-4.2-11.3
		c0-4.2,1.4-7.8,4.2-11s6.1-4.7,9.9-4.7c2.3,0,4.6,0.6,6.7,1.9c2.1,1.3,3.7,2.9,4.9,5V20z M127.2,35.1c-0.2-6.8-7.5-12.3-13.7-8.1
		c-3.6,2.4-4.9,7.5-3.4,11.4c1.2,3.1,3.9,5.5,7.2,6c3.4,0.5,6.8-1.3,8.5-4.2C126.8,38.7,127.2,36.9,127.2,35.1z"/>
	<path class="st1" d="M45.8,50.7V20.8h6.2v5c1.8-2,3.5-3.5,4.9-4.4c1.5-0.9,3.1-1.4,4.9-1.4c2.7,0,5,0.9,6.9,2.7
		c1.9,1.8,2.9,3.9,2.9,6.4v21.6h-6.3V31c0-1.6-0.5-3-1.6-4c-1-1.1-2.4-1.6-4-1.6c-2.1,0-3.9,0.9-5.4,2.7S52,31.9,52,34.4v16.2
		L45.8,50.7L45.8,50.7z"/>
	<path class="st1" d="M74.4,50.7V20.8h6.2v5c1.8-2,3.4-3.5,4.9-4.4s3.1-1.4,4.9-1.4c2.7,0,5,0.9,6.9,2.7c1.9,1.8,2.9,3.9,2.9,6.4
		v21.6h-6.3V31c0-1.6-0.5-3-1.6-4c-1.1-1.1-2.4-1.6-4-1.6c-2.1,0-3.9,0.9-5.4,2.7s-2.3,3.9-2.3,6.4v16.2L74.4,50.7L74.4,50.7z"/>
	<path class="st1" d="M115.4,33.7c2.3,0,3.3-2,3.1-3.8c0-0.1,0-0.3-0.1-0.4c1.4-0.1,2.9,0.4,4,1.5c0.9,1.1,1.4,2.4,1.4,4
		c0,1.4-0.5,2.7-1.4,3.8c-1,1.1-2.2,1.7-3.6,1.7c-2,0-4.1-1.7-4.8-3.6c-0.1-0.1-0.1-0.3-0.1-0.4c-0.3-1-0.1-2.1,0.2-3.2
		C114.5,33.6,114.9,33.7,115.4,33.7z"/>
	<rect x="129.9" y="18.5" class="st1" width="3.6" height="2"/>
</g>
</svg>
